<?xml version="1.0" encoding="utf-8"?>
<!-- Generator: Adobe Illustrator 26.0.3, SVG Export Plug-In . SVG Version: 6.00 Build 0)  -->
<svg version="1.1" id="Layer_1" xmlns="http://www.w3.org/2000/svg" xmlns:xlink="http://www.w3.org/1999/xlink" x="0px" y="0px"
	 viewBox="0 0 837.9 658.4" style="enable-background:new 0 0 837.9 658.4;" xml:space="preserve">
<style type="text/css">
	.st0{fill:#212121;}
	.st1{fill:#FFB7B7;}
	.st2{fill:#F1A593;}
	.st3{fill:#09366D;}
	.st4{fill:#226F5D;}
	.st5{fill:#68A98B;}
	.st6{fill:#D1EEFF;}
	.st7{fill:#FFFFFF;}
	.st8{fill:#9E616A;}
</style>
<path class="st0" d="M253.6,253.9c-4.5-5.8-10.8-11.2-11.2-18.4c-0.4-6.6,4.5-13.1,2.5-19.4c-1.6-4.8-6.8-7.8-12-9.3
	c-9.8-2.9-20.3-2.5-29.9,1.2l0.5-0.4c-5.8-2.1-12.7,0.1-17.2,4c-4.6,4-7.3,9.5-9.4,15c-2.1,5.5-3.8,11.2-6.7,16.4
	c-2.9,5.2-7.4,9.9-13.4,11.7c2,4,8.2,5.3,11.9,2.6c0.9-0.8,1.8-1.6,2.5-2.6c2.4-3,4.9-5.9,7.3-8.9c2.5,4.5-1.2,10.6,1.8,14.7
	c1.6,2.1,4.5,2.9,7.2,3.5c21,4.5,42.8,3.7,63.5-2.4c1.7-0.5,3.5-1.2,4.2-2.7C255.9,257.4,254.8,255.4,253.6,253.9z"/>
<path class="st1" d="M313.2,276.5c-0.1,0.6-0.2,1.2-0.3,1.8l-46,26.5l-11.2-6.4L243.9,314l18.7,13.3c3.1,2.2,7.3,2.1,10.3-0.3
	l47.4-37.4c5.8,2.2,12.3-0.8,14.4-6.6c2.2-5.8-0.8-12.3-6.6-14.4c-5.8-2.2-12.3,0.8-14.4,6.6C313.5,275.7,313.4,276.1,313.2,276.5
	L313.2,276.5z"/>
<path class="st2" d="M265.5,306.1l-14.9,19.3c-1.6,2.1-4.6,2.5-6.8,0.9c-0.2-0.1-0.4-0.3-0.5-0.5l-16.8-17.5
	c-5.8-4.5-6.9-12.9-2.3-18.8c4.5-5.8,12.9-6.9,18.7-2.4l21.1,11.8c2.3,1.3,3.1,4.2,1.9,6.6C265.8,305.7,265.6,305.9,265.5,306.1
	L265.5,306.1z"/>
<polygon class="st1" points="245,641.6 258.2,641.6 264.4,591 245,591 "/>
<path class="st0" d="M241.7,637.3l25.8,0h0c9.1,0,16.5,7.4,16.5,16.5v0.5l-42.3,0L241.7,637.3z"/>
<polygon class="st1" points="155.1,641.6 168.3,641.6 174.5,591 155.1,591 "/>
<path class="st0" d="M151.8,637.3l25.8,0h0c9.1,0,16.5,7.4,16.5,16.5v0.5l-42.3,0L151.8,637.3z"/>
<circle class="st1" cx="214.6" cy="244.2" r="22.7"/>
<path class="st3" d="M227.9,278.2l13.4,6.6c0,0,14.9,25.9,6.4,50.5c-4.2,11.9,7.5,50,7.5,50s18.1,172.5,18.2,225.8
	c-22.5,3.5-43.9,7.7-45-3s-12.8-137.2-12.8-137.2s-16.1,140.4-29,142.6s-38.5-1.1-38.5-1.1s20.4-205.7,34.3-218.6l2.1-10.7
	l-0.1-96.1l16-7.6L227.9,278.2z"/>
<path class="st1" d="M180.1,424.1c5.6-3,7.7-10,4.6-15.6c-0.3-0.6-0.7-1.2-1.1-1.7l15.5-103.5l-20.3-1l-12.1,103.1
	c-4.7,4.3-5.1,11.6-0.8,16.3C169.6,425.7,175.4,426.6,180.1,424.1L180.1,424.1z"/>
<path class="st2" d="M198.7,329.2l-24.3-1.5c-2.7-0.2-4.7-2.5-4.5-5.1c0-0.2,0-0.5,0.1-0.7l5.1-23.7c0.5-7.4,6.9-12.9,14.3-12.4
	c7.3,0.5,12.9,6.8,12.4,14.2l2,24.1c0.2,2.7-1.7,5-4.4,5.2C199.2,329.2,199,329.2,198.7,329.2L198.7,329.2z"/>
<path class="st0" d="M238.4,229.5c-0.9-4-3.8-7.3-7.1-9.8c-11.2-8.3-26.8-7.3-37,2.2c-2.8,2.4-4.7,5.6-5.7,9.1
	c-0.9,3.6,0,7.4,2.4,10.2l0.5,0.3c-0.4-1.7,0.9-3.5,2.6-4.3c1.7-0.6,3.4-1,5.2-1.2c5.5-1,10.2-4.4,13-9.2
	c2.1,5.9,6.6,10.6,12.4,12.9c3,1.2,11.2,2.8,14.1,1.3C242.4,239.4,239.3,233.5,238.4,229.5z"/>
<path id="a7292837-b693-4341-9d08-f79d69c00516-1305" class="st4" d="M71.6,610.3c8,2.8,16.8,1.2,23.4-4.1
	c8.2-6.9,10.8-18.2,12.8-28.7l6.2-31l-12.9,8.9c-9.3,6.4-18.8,13-25.3,22.3s-9.3,21.9-4.1,32"/>
<path id="bbe87a9d-22ff-4c97-8b47-e161a95b9ece-1306" class="st5" d="M73.6,650c-1.6-11.9-3.3-23.9-2.2-35.9
	c1-10.6,4.3-21,10.9-29.6c3.5-4.5,7.8-8.4,12.6-11.4c1.3-0.8,2.4,1.2,1.2,2c-8.4,5.3-14.9,13.1-18.5,22.3c-4,10.2-4.7,21.4-4,32.3
	c0.4,6.6,1.3,13.1,2.2,19.7c0.1,0.6-0.2,1.2-0.8,1.4C74.4,651,73.7,650.7,73.6,650L73.6,650z"/>
<path id="ed3d176e-02dd-4f6a-96fc-dfdec80464da-1307" class="st4" d="M85.3,631c3.4,5.2,9.3,8.2,15.5,8c7.9-0.4,14.4-5.9,20.3-11.1
	l17.5-15.4L127,612c-8.3-0.4-16.8-0.8-24.7,1.8s-15.2,8.7-16.7,16.9"/>
<path id="ae799342-61c9-47cf-bc03-dd36b89c58fd-1308" class="st5" d="M68.9,656.9c7.8-13.9,16.9-29.3,33.2-34.2
	c4.5-1.4,9.3-1.9,14-1.4c1.5,0.1,1.1,2.4-0.4,2.3c-7.9-0.7-15.7,1.4-22.3,5.9c-6.3,4.3-11.2,10.2-15.3,16.5
	c-2.5,3.9-4.8,7.9-7.1,11.9C70.3,659.1,68.2,658.2,68.9,656.9z"/>
<path class="st6" d="M598.7,400.4c-14.7-19.7-41.6-24.4-55-14.4s-16.5,37.2-1.7,56.9c13.6,18.2,38.3,23.2,51.9,16.4
	c0,0.2,0,0.4,0,0.6l0.8,3.8c0.2,0.9,1.1,1.5,2,1.4c0.3-0.1,0.5-0.2,0.7-0.3l6.5-5.1c0.8-0.6,0.9-1.7,0.3-2.4
	c-0.2-0.2-0.4-0.4-0.6-0.5L600,455c-0.1-0.1-0.3-0.1-0.4-0.1C610.1,443.8,612.4,418.7,598.7,400.4z"/>
<path class="st7" d="M566.5,393c14.9,2.4,25.4,16,23.8,31.1c-0.2,1.7,2.4,1.6,2.6,0c1.5-16.2-9.7-30.8-25.7-33.6
	C565.6,390.2,564.9,392.7,566.5,393z"/>
<path class="st4" d="M622.7,60.1c12.9-20.9,7.3-47.7-6.9-56.5S575.2,2.1,562.3,23c-11.9,19.4-7.4,44.1,4,54.3
	c-0.2,0-0.4,0.1-0.6,0.2l-3.2,2.1c-0.8,0.5-1,1.6-0.5,2.4c0.1,0.2,0.3,0.4,0.6,0.5l7.1,4.2c0.8,0.5,1.9,0.2,2.4-0.6
	c0.1-0.2,0.2-0.5,0.2-0.8l0.3-3.9c0-0.1,0-0.3,0-0.4C586.6,86.7,610.8,79.5,622.7,60.1z"/>
<path class="st7" d="M617.7,27.5c3.3,14.8-5.5,29.5-20.1,33.6c-1.6,0.5-0.6,2.9,1,2.4c15.6-4.6,25.1-20.4,21.7-36.3
	C619.9,25.6,617.4,25.8,617.7,27.5z"/>
<path class="st2" d="M394.8,159.5c-1.1-24.6-20.7-43.6-37.3-42.9s-34.5,21.5-33.4,46c1,22.7,18.6,40.7,33.7,42.7
	c-0.2,0.2-0.3,0.3-0.4,0.5l-1.5,3.6c-0.4,0.9,0,1.9,0.9,2.3c0.2,0.1,0.5,0.1,0.8,0.1l8.2-0.5c1-0.1,1.7-0.9,1.6-1.8
	c0-0.3-0.1-0.5-0.2-0.8l-1.9-3.3c-0.1-0.1-0.2-0.2-0.2-0.3C379.8,201.7,395.8,182.2,394.8,159.5z"/>
<path class="st7" d="M372.3,135.2c11,10.4,12,27.6,2.2,39.1c-1.1,1.3,1.1,2.7,2.1,1.5c10.4-12.5,9.4-30.9-2.3-42.2
	C373.1,132.4,371.1,134.1,372.3,135.2z"/>
<path class="st6" d="M471.3,322.4c-13-0.8-24.9-7.8-31.9-18.9c-1-1.5-2.2-3.2-1.6-5.1c0.5-1.5,1.9-2.5,3.5-2.3c2,0.2,3.2,2.2,3.5,4
	c0.3,2.1-1.2,3.7-3,4.5c-4.5,1.9-9-1-12.6-3.4c-8.3-5.3-17.4-10.2-27.4-10.8c-9.3-0.6-19.2,3.1-24.4,11.1c-0.9,1.4,1.3,2.7,2.2,1.3
	c5.1-8,15.5-10.9,24.5-9.6c5.4,0.8,10.5,2.6,15.3,5.2c2.5,1.3,4.9,2.7,7.2,4.2c2.2,1.6,4.6,2.9,7.1,4.1c4.1,1.7,9.6,1.6,12.5-2.3
	c2.7-3.6,0.6-9.7-3.9-10.7c-3.3-0.6-6.5,1.5-7.1,4.8c-0.2,0.8-0.2,1.6,0,2.4c0.4,2.1,2.1,4.2,3.3,6c7.6,10.7,19.7,17.4,32.8,18.2
	C472.9,325,472.9,322.4,471.3,322.4L471.3,322.4z"/>
<path class="st0" d="M720.2,143.8c7.1-3.3,15.8-4.4,23-1.3s12.1,10.9,9.8,17.9c-1.1,3.2-3.5,6.3-2.5,9.4c0.7,2.5,3.2,4.1,5.7,5.2
	s5.2,2.1,7,4.1s2.2,5.3-0.1,6.8c-0.7,0.5-1.7,0.7-2.4,1.3c-1.2,1-1.7,2.7-1.2,4.2c0.6,1.5,1.6,2.8,2.9,3.8c2.5,2.2,5.9,4.7,5.1,7.8
	c-0.6,1.7-2,3-3.7,3.5c-1.8,0.5-3.6,0.7-5.4,0.7l-75,2.4c-2.5,0.2-5,0-7.4-0.4c-2.4-0.4-4.5-1.9-5.8-3.9c-1.4-2.7-0.5-5.9,1.3-8.4
	s4.3-4.4,6.4-6.7s3.8-5.1,3.4-8.1c-0.3-2.4-1.8-4.4-3-6.5s-1.8-4.8-0.3-6.8c2-2.8,6.9-2.5,9.2-5.1c1.7-2,1.4-4.8,1.6-7.3
	c0.4-6.1,4.6-11.8,10.6-14.4c6.2-2.6,13.2-2.2,19,1.3L720.2,143.8z"/>
<polygon class="st8" points="811.5,443.5 811.5,455.7 764.2,461.6 764.2,443.5 "/>
<path class="st0" d="M823.4,440.4l0,39.5h-0.5c-8.5,0-15.4-6.9-15.4-15.4v0l0-24.1L823.4,440.4z"/>
<polygon class="st8" points="753.1,464.3 750,476.2 702.8,470.3 707.2,452.7 "/>
<path class="st0" d="M765.3,464.2l-9.7,38.3l-0.5-0.1c-8.2-2.1-13.2-10.5-11.1-18.7l0,0l5.9-23.4L765.3,464.2z"/>
<path class="st3" d="M741,326.8l2.6,2.7c0,0,16.7,13.1,4.3,47.5l-20.2,58.1l67.6,2.6l-1.4,26.5c0,0-98,5.5-97.2-10.7s4.5-76,4.5-76
	l-20.4-16.4l4.9-27.7L741,326.8z"/>
<path class="st3" d="M688.6,353.2l-7.8,8l-26.3,72.2c0,0-4,18,5,22s66.9,26.4,66.9,26.4l5.9-21.3l-44.6-26.8l20.8-27.3l3.1-43
	L688.6,353.2z"/>
<path class="st4" d="M689,225.9l66.6-13.3l1.4,36.6l-17.3,36.8l3.7,43.6l-59.7,10.4l1.9-57.3c0,0-16-22.6-6.6-45.4L689,225.9z"/>
<path class="st8" d="M837.6,139.2c1.3,5.8-2.4,11.5-8.2,12.8c-0.6,0.1-1.2,0.2-1.9,0.2l-63.9,74.1l-14.9-18l67.5-67.2
	c0.2-6,5.1-10.7,11.1-10.5C832.4,130.7,836.6,134.3,837.6,139.2L837.6,139.2z"/>
<path class="st4" d="M777.6,218.2c0,1.4-0.6,2.7-1.6,3.7l-18,16.2c-4.7,5.7-13.1,6.5-18.8,1.8c-5.7-4.7-6.5-13.1-1.8-18.8l12.5-20.8
	c1.4-2.3,4.3-3,6.6-1.6c0.2,0.1,0.4,0.3,0.6,0.4l18.8,15.5C776.9,215.5,777.5,216.8,777.6,218.2z"/>
<path class="st8" d="M584.6,313.3c-0.4-5.9,4.1-11,10-11.4c0.6,0,1.3,0,1.9,0l74.3-63.7l12,20.1L606,314.6
	c-1.1,5.9-6.7,9.8-12.6,8.7C588.5,322.4,584.8,318.3,584.6,313.3L584.6,313.3z"/>
<path class="st4" d="M655.8,244.2c0.2-1.4,1-2.6,2.1-3.4l20.2-13.3c5.5-4.9,14-4.5,18.9,1c4.9,5.5,4.5,13.9-1,18.8L680.5,266
	c-1.7,2-4.7,2.3-6.8,0.6c-0.2-0.2-0.4-0.3-0.5-0.5L657,248C656.1,247,655.6,245.6,655.8,244.2z"/>
<circle class="st8" cx="717.4" cy="184.3" r="24.6"/>
<path class="st0" d="M742.6,180.8c-7.8-0.6-14.2-8.4-13.4-16.1c0.2,6.6-4.6,12.3-11.1,13.2c-3.6,0.4-7.5-0.7-10.6,1.1
	c-3.4,2-4.5,6.8-8.1,8.5c-3.5,1.7-7.8-0.6-9.5-4s-1.3-7.6-0.2-11.2c5.2-16.7,22.9-26.1,39.6-20.9c5,1.5,9.5,4.3,13.1,7.9
	c3.3,3.3,5.9,7.5,6.3,12.1s-1.7,9.6-5.9,11.7L742.6,180.8z"/>
<path class="st4" d="M382,655.9H1c-0.6,0-1-0.4-1-1s0.4-1,1-1h381c0.6,0,1,0.4,1,1S382.6,655.9,382,655.9z"/>
</svg>
