<?xml version="1.0" encoding="utf-8"?>
<!-- Generator: Adobe Illustrator 26.0.3, SVG Export Plug-In . SVG Version: 6.00 Build 0)  -->
<svg version="1.1" id="Layer_1" xmlns="http://www.w3.org/2000/svg" xmlns:xlink="http://www.w3.org/1999/xlink" x="0px" y="0px"
	 viewBox="0 0 785 341.4" style="enable-background:new 0 0 785 341.4;" xml:space="preserve">
<style type="text/css">
	.st0{fill:#226F5D;}
	.st1{fill:#1E5841;}
	.st2{fill:#09234A;}
	.st3{fill:#3F3D56;}
	.st4{fill:#FFFFFF;}
	.st5{fill:#F1A593;}
</style>
<path class="st0" d="M119,239.9c-5.9,0-11.8-1-17.3-2.9l-0.4-0.1l0.3-1.6c-10.1-19.8-6.6-46.9,8.9-69.3
	c14.1-20.3,35.6-35.1,54.5-48.2l0,0c6.5-4.5,15.3-2.8,19.8,3.6c2.2,3.2,3,7.1,2.2,10.9l-6.7,33.6c-4.9,24.5-10.7,47.7-27.8,62.1
	C143,235.7,131.2,239.9,119,239.9z"/>
<path id="ffbc6c51-bae4-4fa4-8657-d565cf4c059e-1461" class="st1" d="M106.1,322c-3.5-25.6-7.1-51.4-4.6-77.3
	c2.2-22.9,9.2-45.3,23.4-63.7c7.6-9.7,16.8-18.1,27.2-24.6c2.7-1.7,5.2,2.6,2.5,4.3c-18,11.4-32,28.2-39.9,48.1
	c-8.7,22.1-10.1,46.1-8.6,69.6c0.9,14.2,2.8,28.3,4.8,42.3c0.3,1.3-0.4,2.7-1.7,3.1C107.8,324.1,106.5,323.3,106.1,322L106.1,322z"
	/>
<path class="st0" d="M163.4,298.8c-13.1,0-25.3-6.6-32.5-17.5l-0.2-0.4l1-0.8c2.9-16.1,17.1-30.5,36.2-36.6
	c17.3-5.6,36.5-4.7,53.5-3.9l0,0c5.9,0.3,10.4,5.3,10.1,11.1c-0.1,2.9-1.4,5.5-3.6,7.4l-18.9,16.7c-13.8,12.2-27.5,23.2-44.1,24
	C164.4,298.8,163.9,298.8,163.4,298.8z"/>
<path id="aeb1fa48-cf11-4fd0-bcf3-ed4f5186d710-1462" class="st1" d="M96.2,336.7c16.9-29.9,36.5-63.1,71.5-73.7
	c9.7-2.9,19.9-4,30.1-3.1c3.2,0.3,2.4,5.2-0.8,4.9c-17-1.4-33.9,3.1-48,12.7c-13.5,9.2-24.1,22-33,35.6c-5.5,8.3-10.4,17-15.2,25.6
	C99.2,341.5,94.6,339.5,96.2,336.7z"/>
<path class="st0" d="M269.8,297.1c-2.6,0-5.1-0.4-7.6-1.3l-0.4-0.1l0.2-0.8c-4.3-8.6-2.8-20.4,3.9-30.1c6.1-8.8,15.4-15.2,23.6-20.9
	l0,0c2.9-2,6.9-1.3,8.9,1.6c1,1.4,1.3,3.2,1,4.9l-2.9,14.5c-2.1,10.6-4.6,20.7-12.1,26.9C280.3,295.3,275.2,297.1,269.8,297.1z"/>
<path id="befe610e-f590-49ec-bffb-7dad48495fb9-1463" class="st1" d="M264.3,332.3c-1.5-11-3.1-22.2-2-33.3
	c0.9-9.9,4-19.6,10.1-27.5c3.3-4.2,7.2-7.8,11.7-10.6c1.2-0.7,2.3,1.1,1.1,1.9c-7.8,4.9-13.8,12.2-17.2,20.8
	c-3.7,9.5-4.3,19.9-3.7,30c0.4,6.1,1.2,12.2,2.1,18.3c0.1,0.6-0.2,1.1-0.8,1.3C265,333.2,264.4,332.8,264.3,332.3L264.3,332.3z"/>
<path class="st0" d="M289,322.5c-5.7,0-11.1-2.9-14.3-7.7l-0.2-0.4l0.5-0.5c1.3-7,7.5-13.2,15.8-15.9c7.5-2.4,15.8-2,23.2-1.7
	c2.7,0.1,4.8,2.4,4.6,5.1c-0.1,1.3-0.7,2.5-1.6,3.4l-8.2,7.2c-6,5.3-12,10.1-19.2,10.4C289.4,322.5,289.2,322.5,289,322.5z"/>
<path id="b53d741b-ef59-4c7c-affc-95472d9c2a68-1464" class="st1" d="M260,338.6c7.3-12.9,15.7-27.2,30.8-31.8
	c4.2-1.3,8.6-1.7,13-1.3c1.4,0.1,1,2.2-0.3,2.1c-7.3-0.6-14.6,1.3-20.7,5.5c-5.8,4-10.4,9.5-14.2,15.4c-2.4,3.6-4.5,7.3-6.6,11.1
	C261.3,340.7,259.3,339.8,260,338.6z"/>
<path class="st0" d="M691.2,296.1c-8.6,0-15.2-4.7-20-14.1c-4.6-9.1,0.2-16.9,6.5-20.3c6.4-3.4,15.5-3.1,20.6,5.7l0,0
	c5,8.6,5.5,17.5,1.7,26.4l0.2,0.9l-0.4,0.1C697,295.7,694.1,296.1,691.2,296.1z"/>
<path id="e8eb6681-5211-4dd4-9f94-0d3c8ea84ba4-1465" class="st1" d="M699.7,340.3c4.4-25,4.7-56.7-19.8-71.5
	c-1.2-0.7-2.3,1.1-1.1,1.9c23.7,14.3,23,44.9,18.9,69c-0.1,0.6,0.2,1.2,0.8,1.3C699,341.1,699.6,340.8,699.7,340.3L699.7,340.3z"/>
<path class="st0" d="M586.9,320.6c-3.1-0.1-6.1-0.8-8.9-2.2c-7-3.3-7.7-10.1-5.5-15.1c2.2-4.9,7.8-8.9,14.8-5.9
	c6.4,2.5,11.1,8,12.6,14.7l0.6,0.5l-0.3,0.4C596.4,318,592,320.6,586.9,320.6z"/>
<path id="a29d0e9a-5ecc-4f87-bdab-d30ce58fe09b-1466" class="st1" d="M620,338.6c-8.7-16.7-22.6-35.5-43.8-33.1
	c-1.4,0.1-1,2.2,0.3,2.1c20.1-2.1,33.2,16,41.5,31.9C618.7,340.7,620.7,339.8,620,338.6z"/>
<path class="st0" d="M784,341.4H1c-0.6,0-1-0.4-1-1s0.4-1,1-1h783c0.6,0,1,0.4,1,1S784.6,341.4,784,341.4z"/>
<path class="st2" d="M469.2,107.5l-1.7-21.4c-0.5-1.5-2.2-2.3-3.7-1.8c-0.4,0.1-0.7,0.4-1,0.6c-13.8,3.4-19.4,10.6-21,19.6
	c-6.6-1.4-13.4-1.7-20.1-0.9c4.8-6.9,4.5-13.9-0.5-21.1c-0.5-1.5-2.1-2.4-3.6-1.9c-0.4,0.1-0.8,0.3-1.1,0.6
	c-9.3,4.7-15.9,10.6-16.9,18.7c-30.3,16.2-41.7,53.9-25.4,84.2c16.2,30.3,53.9,41.7,84.2,25.4c30.3-16.2,41.7-53.9,25.4-84.2
	C480,118.7,475.1,112.6,469.2,107.5L469.2,107.5z"/>
<path class="st2" d="M477,194.3c50.4-6.5,78.8,75.8-2.6,80.3c-5,5.5-44.1,10.1-77.3,2.5c-29.8,1.2-63.6-37.7-21.9-90.8L477,194.3z"
	/>
<polyline class="st2" points="426.6,236.8 426.6,278.4 446.1,278.4 461.5,236 "/>
<path class="st3" d="M496.1,264.3c-0.1-0.2-0.2-0.3-0.3-0.5c-0.8,0-1.7,0.1-2.5,0.1L496.1,264.3z"/>
<path class="st2" d="M572.7,240.3c-6.2-9.9-21.4-12.7-30.7-5.6c-4.2,3.2-7,7.8-10.6,11.7c-6,6.5-14.1,10.7-22.8,12.1
	c-6.1,0.9-12.5,0.4-18.2,2.9c-5.5,2.4-9.6,9.4-6.6,14.4c20.9-0.8,41.9-1.5,62.8-2.3c6-0.2,12.3-0.5,17.7-3.2
	C574.8,265.1,578.9,250.2,572.7,240.3z"/>
<path class="st4" d="M424.1,211.6c-8.6,0.1-17.1-1.6-25-5c-16.5-7.2-24.1-19.3-24.4-19.8c-0.2-0.4-0.1-0.8,0.3-1
	c0.4-0.2,0.8-0.1,1,0.2c6,8.5,14.2,15.2,23.8,19.2c14.9,6.4,40.3,9.7,76.8-11.5c0.4-0.2,0.8-0.1,1,0.3c0.2,0.4,0.1,0.8-0.3,1l0,0
	C455.9,207.4,438.2,211.6,424.1,211.6z"/>
<path class="st4" d="M427.4,173.1c-2.9,0-5.3-2.4-5.3-5.3c0-0.4,0.3-0.8,0.8-0.8c0.4,0,0.8,0.3,0.8,0.8c0,2.1,1.7,3.8,3.8,3.8
	c2.1,0,3.8-1.7,3.8-3.8c0-0.4,0.3-0.8,0.8-0.8c0.4,0,0.8,0.3,0.8,0.8C432.7,170.7,430.3,173.1,427.4,173.1z"/>
<ellipse class="st4" cx="427.8" cy="158.3" rx="6.1" ry="2.3"/>
<path class="st4" d="M387,158.5c6.5-7.8,18.2-8.9,26.1-2.3c0.8,0.7,1.6,1.5,2.3,2.3c8.2-7.8,8.5-20.9,0.7-29.1
	c-7.8-8.2-20.9-8.5-29.1-0.7c-8.2,7.8-8.5,20.9-0.7,29.1C386.5,158,386.7,158.2,387,158.5z"/>
<path class="st4" d="M442.5,158.5c6.5-7.8,18.2-8.9,26.1-2.3c0.8,0.7,1.6,1.5,2.3,2.3c8.2-7.8,8.5-20.9,0.7-29.1s-20.9-8.5-29.1-0.7
	c-8.2,7.8-8.5,20.9-0.7,29.1l0,0l0,0l0,0C442,158,442.2,158.2,442.5,158.5z"/>
<circle class="st3" cx="392.2" cy="145.6" r="7.1"/>
<circle class="st3" cx="447.7" cy="145.6" r="7.1"/>
<circle class="st5" cx="457.3" cy="167.2" r="6.2"/>
<circle class="st5" cx="401.3" cy="167.2" r="6.2"/>
<ellipse transform="matrix(0.8486 -0.529 0.529 0.8486 -88.4074 212.2804)" class="st2" cx="326.7" cy="260.6" rx="5.3" ry="15.9"/>
<polyline class="st2" points="360.5,223 326.7,258.6 335.5,273.7 367.4,254.7 "/>
<ellipse transform="matrix(0.1464 -0.9892 0.9892 0.1464 61.2875 643.9799)" class="st2" cx="403.8" cy="286.5" rx="5.3" ry="15.9"/>
<polyline class="st2" points="397,236.4 402.3,285.2 419.5,288.7 425.7,251.6 "/>
<ellipse transform="matrix(0.9942 -0.1076 0.1076 0.9942 -27.6457 52.4569)" class="st2" cx="472.5" cy="282.5" rx="15.9" ry="5.3"/>
<polyline class="st2" points="453.3,235.7 470.7,281.6 488.2,280.8 484.9,243.3 "/>
</svg>
