<?xml version="1.0" encoding="utf-8"?>
<!-- Generator: Adobe Illustrator 26.0.3, SVG Export Plug-In . SVG Version: 6.00 Build 0)  -->
<svg version="1.1" id="Layer_1" xmlns="http://www.w3.org/2000/svg" xmlns:xlink="http://www.w3.org/1999/xlink" x="0px" y="0px"
	 viewBox="0 0 653.2 553.2" style="enable-background:new 0 0 653.2 553.2;" xml:space="preserve">
<style type="text/css">
	.st0{display:none;fill:#E6ADE6;}
	.st1{fill:#FFD9D1;}
	.st2{fill:#FFF1F1;}
	.st3{display:none;fill:#FFF1F1;}
	.st4{fill:#F1A593;}
	.st5{fill:#BD8882;}
	.st6{fill:#212121;}
	.st7{fill:#09366D;}
	.st8{fill:#264C87;}
	.st9{fill:#226F5D;}
</style>
<rect x="-18" y="-15" class="st0" width="768" height="589"/>
<g>
	<path class="st1" d="M485.2,162.2c31.7,50.8,77.8,100.9,82,150.1c4.2,49.2-33.3,97.6-79.8,134.1c-46.8,36.3-102.4,60.9-162.7,67.3
		c-60.7,6.5-125.8-4.9-180.4-35.7C89.5,447,45.3,397,25.9,342.3c-19.8-54.6-14.5-114,4.3-163.4c19.1-49.2,51.7-88.6,91.4-115.5
		s86.2-41.3,137.2-48.3C309.4,8.1,364.1,8.4,400,34.1C436.2,60,453.5,111.3,485.2,162.2z"/>
</g>
<g>
	<path class="st2" d="M606.9,103.6c12.9,29,13.4,61.9,18.5,101.3c5.3,39.5,15.3,85.4-1.7,113.4c-17.1,28-61.4,37.9-106.4,49.4
		c-45.1,11.8-91,25.2-129.1,13.2c-38.4-11.9-69.1-49.4-90.1-89.6c-21.1-40.6-32.8-83.9-23.4-121.1c9.3-37.2,39.5-67.9,71.2-86.3
		c31.5-18.5,64.8-24.4,98-32.3c33.2-7.9,66.6-18,95.7-10.3C569,49.1,594.3,74.4,606.9,103.6z"/>
</g>
<circle class="st3" cx="454" cy="218.8" r="162.1"/>
<path class="st4" d="M556.3,164.8H354.9c-0.8,0-1.4-0.3-1.4-0.5c0-0.3,0.6-0.5,1.4-0.5h201.4c0.8,0,1.4,0.3,1.4,0.5
	C557.7,164.7,557.1,164.8,556.3,164.8z"/>
<path class="st4" d="M556.3,126.7H354.9c-0.8,0-1.4-0.4-1.4-0.9c0-0.5,0.6-0.9,1.4-0.9h201.4c0.8,0,1.4,0.4,1.4,0.9
	C557.8,126.3,557.1,126.7,556.3,126.7z"/>
<path class="st4" d="M557,201.9H354.5c-0.4,0-0.8-0.4-0.8-0.9c0-0.5,0.4-0.9,0.8-0.9H557c0.4,0,0.8,0.4,0.8,0.9
	C557.8,201.6,557.4,201.9,557,201.9z"/>
<path class="st4" d="M557,237.2H354.5c-0.4,0-0.8-0.4-0.8-0.9s0.4-0.9,0.8-0.9H557c0.4,0,0.8,0.4,0.8,0.9S557.4,237.2,557,237.2z"/>
<path class="st4" d="M557,273.4H354.5c-0.4,0-0.8-0.4-0.8-0.9c0-0.5,0.4-0.9,0.8-0.9H557c0.4,0,0.8,0.4,0.8,0.9
	C557.8,273,557.4,273.4,557,273.4z"/>
<path class="st4" d="M525.4,306.7V126.5c0-0.4,0.4-0.7,0.9-0.7c0.5,0,0.9,0.3,0.9,0.7v180.3c0,0.4-0.4,0.7-0.9,0.7
	C525.8,307.5,525.4,307,525.4,306.7z"/>
<path class="st4" d="M489.3,306.7V126.5c0-0.4,0.4-0.7,0.9-0.7c0.5,0,0.9,0.3,0.9,0.7v180.3c0,0.4-0.4,0.7-0.9,0.7
	C489.6,307.5,489.3,307,489.3,306.7z"/>
<path class="st4" d="M454,307.7V126.5c0-0.4,0.4-0.7,0.9-0.7s0.9,0.3,0.9,0.7v181.2c0,0.4-0.4,0.7-0.9,0.7S454,308.2,454,307.7z"/>
<path class="st4" d="M417,308.4v-182c0.1-0.5,0.6-0.8,1.1-0.6c0.4,0.1,0.6,0.4,0.6,0.6v182c-0.1,0.5-0.6,0.8-1.1,0.6
	C417.2,309.1,417.1,308.8,417,308.4z"/>
<path class="st4" d="M380,308.4v-182c0.1-0.5,0.6-0.8,1.1-0.6c0.4,0.1,0.6,0.4,0.6,0.6v182c-0.1,0.5-0.6,0.8-1.1,0.6
	C380.2,309.1,380,308.8,380,308.4z"/>
<path class="st4" d="M355.6,309.5c-1.1,0-1.9-0.4-1.9-0.9s0.9-0.9,1.9-0.9l200.1-0.4c1.1,0,1.9,0.4,1.9,0.9s-0.9,0.9-1.9,0.9l0,0
	L355.6,309.5L355.6,309.5z"/>
<polygon class="st5" points="231.7,539 244.5,539 250.6,489.8 231.7,489.8 "/>
<path class="st6" d="M228.5,534.8v16.5h41.1v-0.5c0-8.8-7.2-16-16-16l-7.5-5.7l-0.4,0.2l-13.6,5.5H228.5z"/>
<polygon class="st5" points="116.5,522.4 127.9,528.1 155.3,486.8 138.4,478.4 "/>
<path class="st6" d="M108,532l36.8,18.3l0.2-0.5c3.9-7.9,0.7-17.5-7.2-21.5l0,0l-4.2-8.5h-0.4l-14.6-1.1l-0.3-0.2l-2.9-1.4L108,532z
	"/>
<path class="st7" d="M240.4,274.5L170,277l-0.5-0.7c0,0-6,14-6,26c0,4,2.8,30.1,1.4,35c-0.2,0.6,1,2.1,0.6,5c-0.3,1.9-1.7,0.4-2,3
	c-0.2,1.8,2.3,2.9,2,5c-0.3,2.3-3.7,9.9-4,12.5c-3.3,27.6-7.7,67.6-7.7,67.6s-17.6,47.1-21.3,47.9c-6.2,1.3-10.5,12.6-7,15
	c1.6,1.1,22.9,8.7,22.9,8.7c1.2,0.2,4.8-1.6,2.5-6c-0.4-0.8,2.1,1.2,2.6,0.3c0.5-1-0.4-5.1,0.1-6.2c4.7-10.1,11.8-24.2,18.6-31.4
	c10-10.7,16.3-24.2,18.1-38.8l15.5-86.1l5.3,24.2l4.4,4.4l-1.2,10.1l0.2,9.9l11,41c0,0,1.6,76.6-1,79c-1.4,1.3-7.5,17.5,4,19
	l20.9-1.6c0,0,2.8-5.9,1.4-8.1s-1.3-1.5,0.4-5s1-9.3,1-9.3c2.7-27.6,3.8-55.3,3.2-83c-1-45.5-7.4-97.8-7.4-98.8
	c-0.1-1.1,0.1-2.2,0.6-3.2v-2.9l-2.7-10.2L240.4,274.5z"/>
<path class="st5" d="M149.3,300.1c-2.2-3.8-0.9-8.7,2.9-10.9c0.4-0.2,0.8-0.4,1.3-0.6l-0.5-50.5l12.5,7.9l-1.4,47.9
	c1.3,4.3-1.2,8.7-5.4,10C155,304.9,151.2,303.3,149.3,300.1z"/>
<circle class="st5" cx="198.8" cy="99.8" r="23"/>
<path class="st6" d="M174.7,82.5c3.1-3.2,8-4.8,12.2-3.3c2.8-8.1,11.7-12.4,19.8-9.5c3,1.1,5.6,3,7.5,5.6c1.5-0.7,3.3-0.5,4.7,0.4
	c1.4,1,2.4,2.3,3.2,3.7c3.8,7.3,3.3,16.1-1.3,22.9c0.9-1.8-1.6,1.3-4.1,0.5c-2.1-0.6-10.8-6.1-13-5.9c-2.2,0.3-2.9-1.5-5-2
	c-2.1-0.7-7.4,7.9-8.5,13.6c-0.2,1.1-0.7,2.4-1.8,2.4c-1.4,0-1.8-1.9-2.9-2.6c-1.1-0.6-2.5-0.1-3.1,0.9c-0.5,1.1-0.5,2.4,0.1,3.5
	s1.3,2,2.2,2.8l-0.6,0.3c-1.2,0.9-2.8,0.7-3.9-0.3c-2.2,1-8.2-4.6-7.4-8c-1.7-4.1-2.6-8.6-2.7-13C170.1,90.2,171.7,85.9,174.7,82.5z
	"/>
<path class="st5" d="M344.4,214.6c-4.2,1.3-8.7-1-10-5.2c-0.1-0.4-0.2-0.9-0.3-1.4l-49.4-10.7l10.5-10.4l46.4,12
	c4.4-0.3,8.2,3.1,8.5,7.5C350.3,210.1,348,213.5,344.4,214.6z"/>
<g>
	<path class="st8" d="M152.2,278.9l1.1-0.1h0.1h3.9h6.5h0.5h0.2l2.2,0.4l0.1-0.6l4.3-8.2l3.3-4.6l-1.2-5.4l-2.4-3l4-4.9l0.5-2.4
		l3.4-15.9l11.2-52.6l0,0l0.2-1.1l3.6-17.1l-1.1-4.3l-1.2-4.7c-0.8-3-2.7-5.6-5.2-7.3c-1.1-0.8-2.3-1.3-3.6-1.7
		c-1.6-0.5-3.4-0.6-5.1-0.4l0,0c-1,0.1-1.9,0.3-2.8,0.7l-0.4,0.1c-0.5,0.2-1,0.4-1.5,0.7c-3,1.7-5.2,4.4-6.1,7.7l-11.9,13.2
		l-2.1,7.5l-0.7,2.4l-2.1,12.8v50.3l-0.4,2.3l-0.5,12.6l2.1,2.9l-2.4,3.5l-0.1,1.9v0.5l3.2,3.3l0.2,7L152.2,278.9z"/>
	<path class="st8" d="M163.7,291c17.8,3.1,29.7,1.9,37-9c9.6-12.2,27,2.2,41.6,7.5l1.7-1.9l3-3.2l-2.7-3.1l2.7-5.9l-2.3-7.3
		l-2.9-0.5l0.8-6.3l1.2-3.7l-3.6-3.9l-3-9.8l2.2-20.5c3-28.1-2.8-56.5-16.6-81.2l-8.3-7.5l-3.5-3.1l-4.6-8.6l-4.9,0.6l-13.2,1.5
		l-0.5,1.1l-3.2,7.8l-11.8,12.7c-3.4,3.6-5,8.5-4.5,13.5l0,0l0.3,3.4l0.2,2.5l1.2,11.8l4.8,48.4l0.4,2.6l3.9,27.8
		c-6.3,6.1-6.7,4.8-9.3,15.5c-0.3,1.2-3.8,3.8-4,5C165.4,278.6,163.7,291,163.7,291z"/>
	<path class="st8" d="M211,143.3c-2.9,0.1-5.6,1.2-7.8,3c-1.2,1-2.2,2.2-3,3.6c-0.8,1.5-1.4,3.2-1.5,4.9l0,0
		c-0.5,5.1,2.1,10.1,6.7,12.6l16.3,8.8l2.1,1.1c13.9,14.1,37.2,21.5,64.1,26.4l15.5,4.2l5.2-1.9l1.3,4.9l5.2,0.2l2.8-0.6l5.9-2.3
		l1.1-2.3l0,0l2.4-10.7v-0.1l0,0l0.6-2.5l-3.3-1.5l-2.9-3.9l-5.2,0.1l-4.8,0.4l-1.4-3.3l-60.4-27.9l-12.5-5.8l0,0l-0.6-0.3
		l-16.3-7.5l-4.4,0.1L211,143.3z"/>
</g>
<g>
	<circle class="st7" cx="471.7" cy="147.1" r="8.6"/>
	<circle class="st7" cx="507.9" cy="147.1" r="8.6"/>
	<circle class="st7" cx="435.6" cy="218.8" r="8.6"/>
	<circle class="st7" cx="471.7" cy="254.7" r="8.6"/>
	<circle class="st7" cx="544" cy="254.7" r="8.6"/>
	<circle class="st7" cx="353.5" cy="210.9" r="8.6"/>
</g>
<path class="st9" d="M60.7,546.3c-14.6,1.3-29.1-4.1-39.3-14.6c-6.6-6.9-11.1-15.9-15.5-24.5c-1.3-2.5-2.6-5.1-3.9-7.6
	c-3.1-5.6-2.4-12.4,1.6-17.3c3.9-4.9,10.3-7,16.3-5.2l0.6,0.2l5.7,22.4c0.9-3.3,2.7-10.9,3.9-18.3l0.1-0.6l0.6,0.3
	c6,2.7,11.6,6.1,16.8,10.1c18.5,14.8,29.5,37,30.1,60.6v0.7L60.7,546.3z"/>
<path class="st9" d="M279.9,552.9L1.2,553.2c-0.7,0-1.2-0.5-1.2-1.2s0.5-1.2,1.2-1.2l0,0l278.8-0.3c0.7,0,1.2,0.5,1.2,1.2
	C281.1,552.4,280.6,552.9,279.9,552.9z"/>
</svg>
