<?xml version="1.0" encoding="utf-8"?>
<!-- Generator: Adobe Illustrator 26.0.3, SVG Export Plug-In . SVG Version: 6.00 Build 0)  -->
<svg version="1.1" id="Layer_1" xmlns="http://www.w3.org/2000/svg" xmlns:xlink="http://www.w3.org/1999/xlink" x="0px" y="0px"
	 viewBox="0 0 749.7 690.1" style="enable-background:new 0 0 749.7 690.1;" xml:space="preserve">
<style type="text/css">
	.st0{fill:#D1EEFF;}
	.st1{fill:#226F5D;}
	.st2{opacity:0.1;enable-background:new    ;}
	.st3{fill:#09366D;}
	.st4{fill:#092765;}
	.st5{fill:#FFCABF;}
	.st6{fill:#212121;}
	.st7{fill:#F1A593;}
</style>
<g>
	<path class="st0" d="M459.7,583.2c36.5,6.5,57.5,15.5,89.1,25.8c32,10.3,74.7,21.8,67.3,31.4c-7.4,9.7-65.3,17.5-123.3,25.8
		c-57.9,8.4-115.9,17.4-178.3,18.4c-62.8,1.1-130.2-5.7-185.2-14.4c-55.4-8.8-99-19.4-108.4-30.7c-9.4-11.3,15.2-23.2,49.8-31.9
		c34.1-8.7,78.5-14.1,121.6-20.1c43.1-6,85-12.6,131.9-13.8C371.4,572.5,423.5,576.6,459.7,583.2z"/>
</g>
<path class="st1" d="M197.2,184.1c0,0-23.7,66.7-13.2,90.4s27.2,46.5,27.2,46.5S205.1,188.5,197.2,184.1z"/>
<path class="st2" d="M197.2,184.1c0,0-23.7,66.7-13.2,90.4s27.2,46.5,27.2,46.5S205.1,188.5,197.2,184.1z"/>
<path class="st3" d="M213.9,338.6c0,0-1.8,16.7-2.6,17.6s0.9,2.6,0,5.3s-1.8,6.1,0,7s-9.7,78.1-9.7,78.1s-28.1,36.9-16.7,94.8
	l3.5,58.8c0,0,27.2,1.8,27.2-7.9c0,0-1.8-11.4-1.8-16.7s4.4-5.3,1.8-7.9s-2.6-4.4-2.6-4.4s4.4-3.5,3.5-4.4s7.9-63.2,7.9-63.2
	s9.7-9.7,9.7-14.9v-5.3c0,0,4.4-11.4,4.4-12.3s23.7-54.4,23.7-54.4l9.7,38.6l10.5,55.3c0,0,5.3,50,15.8,69.4
	c0,0,18.4,63.2,18.4,61.5s30.7-6.1,29.8-14S328,501,328,501l4.4-164.2L213.9,338.6z"/>
<path class="st4" d="M190.1,595.8c0,0-23.7,46.5-7.9,48.3s21.9,1.8,29-5.3c3.8-3.8,11.6-9,17.9-12.9c7.6-4.6,11.8-13.2,11-22
	c-0.5-4.3-2.1-7.8-6-8.2c-10.5-0.9-22.8-10.5-22.8-10.5L190.1,595.8z"/>
<path class="st4" d="M321,630c0,0-23.7,46.5-7.9,48.3c15.8,1.8,21.9,1.8,29-5.3c3.8-3.8,11.6-9,17.9-12.9c7.6-4.6,11.8-13.2,11-22
	c-0.5-4.3-2.1-7.8-6-8.2c-10.5-0.9-22.8-10.5-22.8-10.5L321,630z"/>
<circle class="st5" cx="295.9" cy="71" r="36.9"/>
<path class="st5" d="M272.2,83.1c0,0-26.4,48.5-28.5,48.5s47.4,15.8,47.4,15.8s13.7-46.4,15.8-50.6L272.2,83.1z"/>
<path class="st1" d="M312.6,136.2c0,0-52.7-29-57.9-28.1s-61.5,50-60.6,70.2s7.9,53.6,7.9,53.6s2.6,93.1,7.9,93.9
	s-0.9,16.7,0.9,16.7s122.9,0,123.8-2.6S312.6,136.2,312.6,136.2z"/>
<path class="st5" d="M342,344.7c0,0,16.7,50.9,2.6,49.2S324.5,350,324.5,350L342,344.7z"/>
<path class="st1" d="M297.3,133.1c0,0-32.5,7-27.2,50.9s14.9,87.8,14.9,87.8l32.5,71.1l3.5,13.2l23.7-6.1l-17.6-101.8
	c0,0-6.1-108.9-14-112.4C308.1,133.7,302.7,132.7,297.3,133.1z"/>
<polygon class="st2" points="277.5,270.5 317.9,342.5 283.9,266.7 "/>
<path class="st6" d="M332.6,60.1l0.1-2.8l5.6,1.4c-0.1-1.8-1-3.5-2.5-4.6l6-0.3c-10.1-14.4-25.7-24-43.1-26.7
	c-12.9-1.9-27.3,0.8-36.2,10.4c-4.3,4.7-7,10.6-8.9,16.6c-3.5,11.1-4.3,24.4,3.1,33.4c7.5,9.2,20.6,11,32.4,12.1
	c4.2,0.4,8.5,0.8,12.4-0.8c0.4-4.4-0.1-8.9-1.7-13c-0.6-1.3-0.9-2.7-0.9-4.2c0.5-3.5,5.2-4.4,8.7-3.9c3.5,0.5,7.7,1.2,10.1-1.5
	c1.6-1.9,1.5-4.6,1.7-7C320,62.6,332.6,61.5,332.6,60.1z"/>
<circle class="st7" cx="559" cy="600.1" r="43"/>
<circle class="st7" cx="54" cy="585.1" r="43"/>
<circle class="st7" cx="54" cy="528.1" r="31"/>
<circle class="st7" cx="54" cy="480.1" r="22"/>
</svg>
