<?xml version="1.0" encoding="utf-8"?>
<!-- Generator: Adobe Illustrator 26.0.3, SVG Export Plug-In . SVG Version: 6.00 Build 0)  -->
<svg version="1.1" id="Layer_1" xmlns="http://www.w3.org/2000/svg" xmlns:xlink="http://www.w3.org/1999/xlink" x="0px" y="0px"
	 viewBox="0 0 699.7 568.7" style="enable-background:new 0 0 699.7 568.7;" xml:space="preserve">
<style type="text/css">
	.st0{fill:#D1EEFF;}
	.st1{fill:#226F5D;}
	.st2{fill:#FFCABF;}
	.st3{fill:#212121;}
	.st4{fill:#A0616A;}
	.st5{fill:#F1A593;}
	.st6{display:none;fill:#F2F2F2;}
	.st7{fill:#09366D;}
	.st8{fill:#2F2E41;}
	.st9{fill:#CCCCCC;}
</style>
<g>
	<path class="st0" d="M555.6,194.4c29,52.8,72.6,105.1,74,155.8s-39.1,100-88.1,137c-49.3,36.7-106.8,61.3-167.9,67
		c-61.6,5.8-126.5-6.9-179.8-39.4c-53.6-32.7-95.2-84.8-111.6-141.5C65.4,316.7,74.3,255.6,96,205c22.1-50.4,57.2-90.6,98.8-117.7
		S284.1,46,335.9,39.5c51.3-6.4,106.5-5.3,141.2,21.7C512.1,88.4,526.6,141.5,555.6,194.4z"/>
</g>
<path class="st1" d="M198.2,541.4c-2,0.1-3.7-1.5-3.8-3.4c0-1.1,0.4-2.1,1.2-2.8c0.1-0.4,0.2-0.6,0.2-1c-2-5-7.6-7.4-12.6-5.5
	c-2.4,1-4.4,2.9-5.4,5.3c-4.3,10-9.8,20.4-7.1,31.4c-18.2-38.6-12-86.6,14.9-119.6c7.4-4.1,13.5-11.4,15-19.8
	c-3.7,1.2-8.3-1.7-5.5-5.6c1.2-1.5,2.4-3,3.6-4.4c-14-14.9-30.6,8.5-15.3,28.6c-5,6.3-9.4,13.1-13,20.4c0.8-7.7-0.2-15.4-2.9-22.6
	c-2.8-6.7-8-12.4-12.6-18.2c-5.6-7.1-17.1-3.8-17.8,5.2c5.2,1.7,5.8,9.1-0.1,10.2c1.5,16.7,12.5,32,27.5,39.4
	c-5.5,15.6-7.7,32.1-6.4,48.6c-2.7-19.2-23.3-23.9-37.8-31.6c-2.6-1.7-6.1-0.9-7.8,1.7c-0.8,1.2-1,2.6-0.8,4c2,0.8,3.9,1.8,5.7,3
	c2.3,1.5,2.8,4.6,1.3,6.8c-0.8,1.2-2.1,2-3.6,2.1c7.3,18,26.1,30.1,45.4,30c1.9,8.1,4.5,15.9,8,23.4h28.7c0.1-0.3,0.2-0.6,0.3-1
	c-2.7,0.2-5.3,0-7.9-0.5C196.8,557.3,202.3,553,198.2,541.4L198.2,541.4z"/>
<path class="st1" d="M454,541.4c2,0.1,3.7-1.5,3.8-3.4c0-1.1-0.4-2.1-1.2-2.8c-0.1-0.4-0.2-0.6-0.2-1c2-5,7.6-7.4,12.6-5.5
	c2.4,1,4.4,2.9,5.4,5.3c4.3,10,9.8,20.4,7.1,31.4c18.2-38.6,12-86.6-14.9-119.6c-7.4-4.1-13.5-11.4-15-19.8c3.7,1.2,8.3-1.7,5.5-5.6
	c-1.2-1.5-2.4-3-3.6-4.4c14-14.9,30.6,8.5,15.3,28.6c5,6.3,9.4,13.1,13,20.4c-0.8-7.7,0.2-15.4,2.9-22.6c2.8-6.7,8-12.4,12.6-18.2
	c5.6-7.1,17.1-3.8,17.8,5.2c-5.2,1.7-5.8,9.1,0.1,10.2c-1.5,16.7-12.5,32-27.5,39.4c5.5,15.6,7.7,32.1,6.4,48.6
	c2.7-19.2,23.3-23.9,37.8-31.6c2.6-1.7,6.1-0.9,7.8,1.7c0.8,1.2,1,2.6,0.8,4c-2,0.8-3.9,1.8-5.7,3c-2.3,1.5-2.8,4.6-1.3,6.8
	c0.8,1.2,2.1,2,3.6,2.1c-7.3,18-26.1,30.1-45.4,30c-1.9,8.1-4.5,15.9-8,23.4H455c-0.1-0.3-0.2-0.6-0.3-1c2.7,0.2,5.3,0,7.9-0.5
	C455.3,557.3,449.9,553,454,541.4L454,541.4z"/>
<polygon class="st2" points="464.6,545.7 452.3,548.5 435.5,502.2 453.8,498 "/>
<path class="st3" d="M468,558.5l-38,8.6l-0.1-0.5c-1.9-8.2,3.3-16.3,11.4-18.2l0,0l5.7-6.8l14.1,2.3l3.3-0.8L468,558.5z"/>
<polygon class="st2" points="663.9,319.9 670.7,330.6 632.7,361.9 622.7,346.1 "/>
<path class="st3" d="M674.9,312.4l20.9,32.9l-0.4,0.3c-7.1,4.5-16.4,2.4-20.9-4.7l0,0l-8.4-3.1l-2.6-14.1l-1.8-2.9L674.9,312.4z"/>
<path class="st4" d="M270.1,205.5l-3.1-17.7l46.4-21l10-17.7c-1-4.7,2-9.2,6.7-10.2s9.2,2,10.2,6.7c0.8,3.7-0.9,7.4-4.2,9.2
	l-16.5,25.5L270.1,205.5z"/>
<polygon class="st5" points="256,191.1 276.9,180.4 282.4,201.1 267.9,211.9 "/>
<polygon class="st4" points="209.1,544.1 221.7,544.1 227.7,495.3 209.1,495.3 "/>
<path class="st3" d="M225.9,545.2v-8.6l-3.3,0.2l-13.5,0.8l-3.1,0.2l-2.4,28.7l-0.1,1.5h9l0.3-1.5l1.3-6.9l3.4,6.9l0.7,1.5H242
	c2.9,0,5.3-2.4,5.3-5.4C248.2,558,228.4,547.9,225.9,545.2z"/>
<polygon class="st4" points="59.1,350.7 56.2,363 102.2,380.2 106.5,362 "/>
<path class="st3" d="M55.1,366.8l8.3,2l0.6-3.3l2.4-13.3l0.5-3.1l-27.3-9l-1.5-0.5l-2.1,8.7l1.4,0.6l6.4,2.9l-7.5,1.7l-1.7,0.4
	L29.1,377c-0.7,2.9,1.1,5.7,4,6.4C37.4,385.5,51.9,368.6,55.1,366.8z"/>
<path class="st4" d="M228.6,228.7l-16.3-7.6l-32.4,39.2l-19.8,5c-4.2-2.2-9.4-0.5-11.6,3.8c-2.2,4.2-0.5,9.4,3.8,11.6
	c3.3,1.7,7.4,1.1,10-1.6l28.9-9.2L228.6,228.7z"/>
<path class="st6" d="M320.7,359.2c-40.4,0-86.9-44.8-127.9-23.5c-124.4,64.5-107.3-43.4-143-83.6l1.2-2.4
	c39.4,35.4,88.7,64.1,142.4,83.2c48.5,17.2,97.5,25.2,141.4,23.1l0.1,2.8C330.1,359.1,325.4,359.2,320.7,359.2z"/>
<circle class="st5" cx="340.6" cy="77.9" r="11"/>
<path class="st7" d="M212.2,291.9c0,0-26.7,17.4-19.6,28.9c0.2,0.4-31.9,42.8-31.9,42.8l-60.6-3.8L98,380.1l54,15.6
	c0,0,13.2,9.7,23.4-1s44.2-43.4,44.2-43.4l1.6,66.1L204.1,509l25.5-1.6l24.8-91.9l9.1-104.1L212.2,291.9z"/>
<path class="st5" d="M231.2,187.6l-11.2,8.5l-12.8,27.3l12.3,16.7c0,0,10.3,17.9-6.2,35.3s-29.3,35.9-16,35.2s66.9,26.6,67.3,4.3
	s1.1-39.5,1.1-39.5l14.1-35.7c0,0,8.4-21.3,2.5-27.7s-13.8-14.5-13.8-14.5l-14.3-14.3h-12.9L231.2,187.6z"/>
<path class="st4" d="M252.2,135.2c25.2,14.3,4.5,52.1-21.1,38.7C205.9,159.5,226.5,121.7,252.2,135.2z"/>
<path class="st3" d="M265.6,143.1c-1.8,2.3-5.4,1.2-12.7,2.9c0-2.4-0.3-4.9-0.8-7.3c-0.5,2.9-1.7,5.7-3.4,8.2
	c-6.3,0.7,1.4,19.7-1.8,33.7c-4.1-29.5-12.8-21.8-8.4-15.9c2.8,3.7,0.9,15-7.5,9.4c-13.9,6.6-33.7-26.2-11.8-41.7
	c-0.4-8.3,8.9-9.6,14.6-7.1C247.6,115,263.4,128.2,265.6,143.1z"/>
<path class="st3" d="M201.1,121.6c-5.6,34.5-35.6-6.3-49.8,27.6c-4.4,12.3,3.2,21.1,8,31.3c1.1,8.4-9.8,12.6-10.9,20.3
	c-0.3,17.7,28.2,16.6,36.2,5.4c8.2-11.7-1.6-27.3,3.3-39.9c6.9-17.4,35.1-17.5,37.5-37.8C220.6,121.8,207.9,114.1,201.1,121.6z"/>
<path class="st8" d="M223.8,125c-0.2,0.1-0.4,0.2-0.5,0.2l0,0c-0.2,0.1-0.3,0.2-0.5,0.2l0,0c-0.2-0.2-0.4-0.4-0.6-0.6
	c-0.1,0.3,0,0.6,0,0.9v0.1c0.2,0.2,0.4,0.4,0.6,0.6c0.2-0.1,0.4-0.3,0.6-0.4c0.1-0.1,0.2-0.2,0.4-0.3
	C223.7,125.6,223.7,125.3,223.8,125L223.8,125z M229.6,114.2c-4.3-1-5.7,4.6-6.1,7.4c-1.6-9.8-8.1-6.7-5.8,0c0.7,2,1.8,3.8,3.3,5.3
	c0.2,0.2,0.4,0.5,0.7,0.7c-0.3,1.4,1.1,1,2.8-0.2c1.3-0.9,2.5-2,3.6-3.2C231.6,120.4,234.3,115.5,229.6,114.2L229.6,114.2z
	 M229.7,119.8c-1.3,1.7-2.8,3.3-4.4,4.7c-0.5,0.5-1,0.9-1.6,1.3c0,0.1,0,0.2,0,0.2c0,0.1-0.1,0.2-0.1,0.3c-0.5,1-1.1,0.4-1.4-0.4
	c0,0,0-0.1-0.1-0.1c-0.8-0.8-1.4-1.7-2-2.6c-4-6.9,2.4-11.6,2.1,1.3c-0.1,0.1-0.1,0.2-0.1,0.4c-0.1,0.3,0,0.6,0,0.9v0.1
	c0.2,0.2,0.4,0.4,0.6,0.6c0.2-0.1,0.4-0.3,0.6-0.4c0.1-0.1,0.2-0.2,0.4-0.3c0-0.3,0-0.5,0.1-0.9l0,0c0.3-2.6,0.9-7.2,2.2-8.5
	C228.7,114.3,232.3,116.6,229.7,119.8L229.7,119.8z M223.8,125c-0.2,0.1-0.4,0.2-0.5,0.2l0,0c-0.2,0.1-0.3,0.2-0.5,0.2l0,0
	c-0.2-0.2-0.4-0.4-0.6-0.6c-0.1,0.3,0,0.6,0,0.9v0.1c0.2,0.2,0.4,0.4,0.6,0.6c0.2-0.1,0.4-0.3,0.6-0.4c0.1-0.1,0.2-0.2,0.4-0.3
	C223.7,125.6,223.7,125.3,223.8,125L223.8,125z"/>
<path class="st7" d="M456.4,314.9l-9.3,24.2l-43.6,86l38.3,100.1l19.8-5.2l-16.3-94.8l46.8-56.8l55.5,37.7c0,0,24.6,19.2,34,1
	s70-57,70-57l-15-16l-69.8,32.7L518.6,299L456.4,314.9z"/>
<path class="st5" d="M503.3,200.6L488,184.1l-26.2-3.6L429.6,203l0.3,24.9l15.9,58.7c0,0-6.1,42.2,10.9,41.8s26.1-8.9,33-7.1
	s36.2,9,38,1.4s11.7-2.2,11.3-9.4s-26.7-59.4-26.7-59.4l6.5-52.2L503.3,200.6z"/>
<path class="st2" d="M600.2,124.9c0.5,5.2-3.2,9.7-8.4,10.3c-0.5,0.1-1.1,0.1-1.7,0L555,202.1l-9.4-14.5l36-63.2
	c0.7-5.2,5.5-8.7,10.7-8C596.5,117.1,599.8,120.5,600.2,124.9z"/>
<path class="st5" d="M489.4,213c0,0-1.4,11.9,12,14.9s50.5-18.3,56.6-21.5c1.9-1,4.5-6,7.1-12.3c1.2-2.9,2.4-6,3.6-9.2
	c0.7-1.8,3.9-2.3,4.5-4.2c0.6-1.8-1.3-4.9-0.8-6.7c2.7-8.1,4.6-14.5,4.6-14.5l-8.9-16.7c-12.4,6.6-18.8,21-23.5,37.7L489.4,213z"/>
<path class="st2" d="M332.9,140.3c0.8,5.1,5.6,8.6,10.7,7.8c0.5-0.1,1.1-0.2,1.6-0.4l50.8,56l5.5-16.4l-50.6-52.2
	c-2-4.8-7.5-7.1-12.3-5.1C334.5,131.7,332.2,136,332.9,140.3z"/>
<path class="st5" d="M462.2,197.8c0,0,4.3,11.2-7.9,17.4s-53.5-5-60.2-6.7c-2.1-0.5-5.8-4.7-10-10.2c-1.9-2.5-3.8-5.2-5.7-8
	c-1.1-1.6-4.4-1.3-5.4-2.9c-1.1-1.6,0-5.1-0.9-6.6c-4.7-7.2-8.1-12.9-8.1-12.9l4.4-18.4c13.7,3.2,23.5,15.7,32.2,30.6L462.2,197.8z"
	/>
<circle class="st2" cx="475.4" cy="151.4" r="25"/>
<path class="st3" d="M503.9,137.1c-2.6-4.1-7.6-6.8-12.3-6c-1.3-9.2-9.9-15.6-19.1-14.2c-3.4,0.5-6.6,2-9.1,4.4
	c-1.5-1.1-3.4-1.3-5.1-0.5c-1.6,0.7-3.1,1.9-4.2,3.3c-5.6,7-6.9,16.4-3.4,24.7c-0.6-2.1,1.5-4.1,3.7-4.6s4.4,0,6.6-0.3
	c2.8-0.4,5.3-2,8.1-2.4c2.4-0.2,4.8,0.2,7,0.9c2.3,0.7,4.6,1.1,7,0.9c2.4-0.3,5.4,8.6,5.3,14.9c0,1.2,0.2,2.7,1.4,3
	c1.4,0.3,2.3-1.7,3.6-2.2c1.3-0.4,2.7,0.4,3.1,1.6c0.3,1.3,0.1,2.7-0.8,3.7c-0.8,1-1.8,1.9-2.9,2.6l0.6,0.5c1.1,1.2,2.9,1.4,4.2,0.5
	c1.3-0.9,2.3-2.1,3-3.5c2.6-4.1,4.5-8.6,5.6-13.3C507.1,146.3,506.5,141.1,503.9,137.1z"/>
<path class="st6" d="M688.7,235.6c-32.2,24.4-96.3,16.7-116.2,58.5c-60.2,126.5-111.8,30.1-164.5,19.7l-0.5-2.6
	c52.8,4.4,109.4-2.4,163.8-19.6c49.1-15.6,92.9-38.7,126.7-67l1.8,2.2C696.1,229.8,692.5,232.7,688.7,235.6z"/>
<path class="st9" d="M552.5,567c-0.8,2.3-438.8,2.3-439.7,0C113.6,564.7,551.6,564.7,552.5,567z"/>
</svg>
